<?xml version="1.0" encoding="UTF-8" standalone="no"?>
<!DOCTYPE svg PUBLIC "-//W3C//DTD SVG 1.1//EN"
 "http://www.w3.org/Graphics/SVG/1.1/DTD/svg11.dtd">
<!-- Generated by graphviz version 2.43.0 (0)
 -->
<!-- Title: dd Pages: 1 -->
<svg width="680pt" height="260pt"
 viewBox="0.00 0.00 680.07 260.00" xmlns="http://www.w3.org/2000/svg" xmlns:xlink="http://www.w3.org/1999/xlink">
<g id="graph0" class="graph" transform="scale(1 1) rotate(0) translate(4 256)">
<title>dd</title>
<polygon fill="white" stroke="transparent" points="-4,4 -4,-256 676.07,-256 676.07,4 -4,4"/>
<!-- e0 -->
<g id="node1" class="node">
<title>e0</title>
<polygon fill="none" stroke="black" points="186.49,-144 246.58,-144 267.98,-180 165.09,-180 186.49,-144"/>
<text text-anchor="middle" x="216.53" y="-158.3" font-family="Times,serif" font-size="14.00">rot13</text>
</g>
<!-- n2 -->
<g id="node2" class="node">
<title>n2</title>
<ellipse fill="none" stroke="black" cx="315.53" cy="-90" rx="27" ry="18"/>
<text text-anchor="middle" x="315.53" y="-86.3" font-family="Times,serif" font-size="14.00">ρ₁,₃</text>
<text text-anchor="middle" x="283.53" y="-111.8" font-family="Times,serif" font-size="14.00">2</text>
</g>
<!-- e0&#45;&gt;n2 -->
<g id="edge1" class="edge">
<title>e0&#45;&gt;n2</title>
<path fill="none" stroke="black" d="M240.75,-143.88C255.39,-133.52 274.07,-120.32 289.1,-109.69"/>
<polygon fill="black" stroke="black" points="291.32,-112.41 297.46,-103.78 287.28,-106.69 291.32,-112.41"/>
</g>
<!-- n1 -->
<g id="node6" class="node">
<title>n1</title>
<polygon fill="none" stroke="black" points="378.53,-36 324.53,-36 324.53,0 378.53,0 378.53,-36"/>
<text text-anchor="middle" x="351.53" y="-14.3" font-family="Times,serif" font-size="14.00">1</text>
</g>
<!-- n2&#45;&gt;n1 -->
<g id="edge10" class="edge">
<title>n2&#45;&gt;n1</title>
<path fill="none" stroke="black" d="M323.88,-72.76C328.08,-64.61 333.26,-54.53 338,-45.31"/>
<polygon fill="black" stroke="black" points="341.26,-46.62 342.73,-36.12 335.04,-43.42 341.26,-46.62"/>
</g>
<!-- n0 -->
<g id="node11" class="node">
<title>n0</title>
<polygon fill="none" stroke="black" points="450.53,-36 396.53,-36 396.53,0 450.53,0 450.53,-36"/>
<text text-anchor="middle" x="423.53" y="-14.3" font-family="Times,serif" font-size="14.00">0</text>
</g>
<!-- n2&#45;&gt;n0 -->
<g id="edge9" class="edge">
<title>n2&#45;&gt;n0</title>
<path fill="none" stroke="black" stroke-dasharray="1,5" d="M334.34,-76.81C349.3,-67.11 370.64,-53.28 388.69,-41.58"/>
<polygon fill="black" stroke="black" points="390.76,-44.41 397.25,-36.03 386.96,-38.54 390.76,-44.41"/>
</g>
<!-- e1 -->
<g id="node3" class="node">
<title>e1</title>
<polygon fill="none" stroke="black" points="555.57,-216 641.5,-216 672.1,-252 524.97,-252 555.57,-216"/>
<text text-anchor="middle" x="598.53" y="-230.3" font-family="Times,serif" font-size="14.00">rot13_13</text>
</g>
<!-- n4 -->
<g id="node4" class="node">
<title>n4</title>
<ellipse fill="none" stroke="black" cx="598.53" cy="-162" rx="27" ry="18"/>
<text text-anchor="middle" x="598.53" y="-158.3" font-family="Times,serif" font-size="14.00">ρ₂,₃</text>
<text text-anchor="middle" x="566.53" y="-183.8" font-family="Times,serif" font-size="14.00">4</text>
</g>
<!-- e1&#45;&gt;n4 -->
<g id="edge2" class="edge">
<title>e1&#45;&gt;n4</title>
<path fill="none" stroke="black" d="M598.53,-215.7C598.53,-207.98 598.53,-198.71 598.53,-190.11"/>
<polygon fill="black" stroke="black" points="602.03,-190.1 598.53,-180.1 595.03,-190.1 602.03,-190.1"/>
</g>
<!-- n4&#45;&gt;n0 -->
<g id="edge11" class="edge">
<title>n4&#45;&gt;n0</title>
<path fill="none" stroke="black" stroke-dasharray="1,5" d="M583.15,-147.04C563.29,-129.18 527.49,-97.5 495.53,-72 482.92,-61.93 468.67,-51.3 456.2,-42.22"/>
<polygon fill="black" stroke="black" points="458.04,-39.23 447.89,-36.21 453.94,-44.9 458.04,-39.23"/>
</g>
<!-- n3 -->
<g id="node12" class="node">
<title>n3</title>
<ellipse fill="none" stroke="black" cx="459.53" cy="-90" rx="27" ry="18"/>
<text text-anchor="middle" x="459.53" y="-86.3" font-family="Times,serif" font-size="14.00">ρ₁,₂</text>
<text text-anchor="middle" x="427.53" y="-111.8" font-family="Times,serif" font-size="14.00">3</text>
</g>
<!-- n4&#45;&gt;n3 -->
<g id="edge12" class="edge">
<title>n4&#45;&gt;n3</title>
<path fill="none" stroke="black" d="M577.72,-150.52C554.38,-138.77 516.33,-119.6 489.72,-106.2"/>
<polygon fill="black" stroke="black" points="490.99,-102.92 480.48,-101.55 487.84,-109.18 490.99,-102.92"/>
</g>
<!-- e2 -->
<g id="node5" class="node">
<title>e2</title>
<polygon fill="none" stroke="black" points="117.16,-72 229.9,-72 270.06,-108 77.01,-108 117.16,-72"/>
<text text-anchor="middle" x="173.53" y="-86.3" font-family="Times,serif" font-size="14.00">rot13_13_13</text>
</g>
<!-- e2&#45;&gt;n1 -->
<g id="edge3" class="edge">
<title>e2&#45;&gt;n1</title>
<path fill="none" stroke="black" d="M217.08,-71.88C247.09,-60.07 286.53,-44.56 314.93,-33.4"/>
<polygon fill="black" stroke="black" points="316.45,-36.56 324.48,-29.64 313.89,-30.04 316.45,-36.56"/>
</g>
<!-- e3 -->
<g id="node7" class="node">
<title>e3</title>
<polygon fill="none" stroke="black" points="472.49,-144 532.58,-144 553.98,-180 451.09,-180 472.49,-144"/>
<text text-anchor="middle" x="502.53" y="-158.3" font-family="Times,serif" font-size="14.00">rot23</text>
</g>
<!-- n5 -->
<g id="node8" class="node">
<title>n5</title>
<ellipse fill="none" stroke="black" cx="387.53" cy="-90" rx="27" ry="18"/>
<text text-anchor="middle" x="387.53" y="-86.3" font-family="Times,serif" font-size="14.00">ρ₂,₃</text>
<text text-anchor="middle" x="355.53" y="-111.8" font-family="Times,serif" font-size="14.00">5</text>
</g>
<!-- e3&#45;&gt;n5 -->
<g id="edge4" class="edge">
<title>e3&#45;&gt;n5</title>
<path fill="none" stroke="black" d="M474.4,-143.88C456.51,-132.98 433.43,-118.94 415.55,-108.06"/>
<polygon fill="black" stroke="black" points="417.1,-104.9 406.74,-102.69 413.46,-110.88 417.1,-104.9"/>
</g>
<!-- n5&#45;&gt;n1 -->
<g id="edge8" class="edge">
<title>n5&#45;&gt;n1</title>
<path fill="none" stroke="black" d="M379.18,-72.76C374.99,-64.61 369.8,-54.53 365.06,-45.31"/>
<polygon fill="black" stroke="black" points="368.03,-43.42 360.34,-36.12 361.8,-46.62 368.03,-43.42"/>
</g>
<!-- n5&#45;&gt;n0 -->
<g id="edge7" class="edge">
<title>n5&#45;&gt;n0</title>
<path fill="none" stroke="black" stroke-dasharray="1,5" d="M395.88,-72.76C400.08,-64.61 405.26,-54.53 410,-45.31"/>
<polygon fill="black" stroke="black" points="413.26,-46.62 414.73,-36.12 407.04,-43.42 413.26,-46.62"/>
</g>
<!-- e4 -->
<g id="node9" class="node">
<title>e4</title>
<polygon fill="none" stroke="black" points="30.57,-144 116.5,-144 147.1,-180 -0.03,-180 30.57,-144"/>
<text text-anchor="middle" x="73.53" y="-158.3" font-family="Times,serif" font-size="14.00">rot23_12</text>
</g>
<!-- e4&#45;&gt;n2 -->
<g id="edge5" class="edge">
<title>e4&#45;&gt;n2</title>
<path fill="none" stroke="black" d="M122.6,-151.12C164.84,-141.97 227.08,-126.94 279.53,-108 281.39,-107.33 283.27,-106.6 285.16,-105.83"/>
<polygon fill="black" stroke="black" points="286.73,-108.96 294.5,-101.75 283.93,-102.55 286.73,-108.96"/>
</g>
<!-- e5 -->
<g id="node10" class="node">
<title>e5</title>
<polygon fill="none" stroke="black" points="316.57,-144 402.5,-144 433.1,-180 285.97,-180 316.57,-144"/>
<text text-anchor="middle" x="359.53" y="-158.3" font-family="Times,serif" font-size="14.00">rot12_23</text>
</g>
<!-- e5&#45;&gt;n5 -->
<g id="edge6" class="edge">
<title>e5&#45;&gt;n5</title>
<path fill="none" stroke="black" d="M366.45,-143.7C369.65,-135.7 373.52,-126.02 377.07,-117.15"/>
<polygon fill="black" stroke="black" points="380.42,-118.21 380.88,-107.62 373.92,-115.61 380.42,-118.21"/>
</g>
<!-- n3&#45;&gt;n1 -->
<g id="edge14" class="edge">
<title>n3&#45;&gt;n1</title>
<path fill="none" stroke="black" d="M440.72,-76.81C425.76,-67.11 404.43,-53.28 386.37,-41.58"/>
<polygon fill="black" stroke="black" points="388.11,-38.54 377.81,-36.03 384.3,-44.41 388.11,-38.54"/>
</g>
<!-- n3&#45;&gt;n0 -->
<g id="edge13" class="edge">
<title>n3&#45;&gt;n0</title>
<path fill="none" stroke="black" stroke-dasharray="1,5" d="M451.18,-72.76C446.99,-64.61 441.8,-54.53 437.06,-45.31"/>
<polygon fill="black" stroke="black" points="440.03,-43.42 432.34,-36.12 433.8,-46.62 440.03,-43.42"/>
</g>
</g>
</svg>
